<svg xmlns="http://www.w3.org/2000/svg" xmlns:xlink="http://www.w3.org/1999/xlink" width="80" zoomAndPan="magnify" viewBox="0 0 60 60" height="80" preserveAspectRatio="xMidYMid meet" version="1.0"><defs><clipPath id="9badcedecd"><path d="M 24 42 L 36 42 L 36 59.917969 L 24 59.917969 Z M 24 42 " clip-rule="nonzero"/></clipPath><clipPath id="91fb869947"><path d="M 0.113281 23 L 18 23 L 18 36 L 0.113281 36 Z M 0.113281 23 " clip-rule="nonzero"/></clipPath></defs><rect x="-6" width="72" fill="#ffffff" y="-6" height="72" fill-opacity="1"/><rect x="-6" width="72" fill="#16283f" y="-6" height="72" fill-opacity="1"/><path fill="#e83917" d="M 22.679688 18.074219 L 14.175781 13.957031 L 18.359375 22.335938 C 19.472656 20.621094 20.949219 19.164062 22.679688 18.074219 Z M 22.679688 18.074219 " fill-opacity="1" fill-rule="nonzero"/><path fill="#e83917" d="M 37.734375 18.160156 C 39.457031 19.273438 40.921875 20.75 42.015625 22.484375 L 46.140625 13.957031 Z M 37.734375 18.160156 " fill-opacity="1" fill-rule="nonzero"/><path fill="#e83917" d="M 18.285156 37.441406 L 14.175781 45.929688 L 22.554688 41.746094 C 20.839844 40.640625 19.378906 39.167969 18.285156 37.441406 Z M 18.285156 37.441406 " fill-opacity="1" fill-rule="nonzero"/><path fill="#e83917" d="M 41.941406 37.527344 C 40.832031 39.25 39.355469 40.714844 37.628906 41.808594 L 46.140625 45.925781 L 41.945312 37.523438 Z M 41.941406 37.527344 " fill-opacity="1" fill-rule="nonzero"/><path fill="#54c5ed" d="M 30.136719 17.390625 C 23.203125 17.390625 17.578125 23.015625 17.578125 29.949219 C 17.578125 36.886719 23.203125 42.507812 30.136719 42.507812 C 37.074219 42.507812 42.695312 36.886719 42.695312 29.949219 C 42.695312 23.015625 37.074219 17.390625 30.136719 17.390625 Z M 30.136719 38.621094 L 21.871094 24.300781 L 27.40625 24.300781 L 30.144531 29.042969 L 32.886719 24.300781 L 38.40625 24.300781 Z M 30.136719 38.621094 " fill-opacity="1" fill-rule="nonzero"/><path fill="#54c5ed" d="M 25.28125 16.785156 L 30.144531 2.203125 L 30.144531 15.917969 C 32.296875 15.917969 34.339844 16.40625 36.167969 17.28125 L 30.839844 1.960938 L 30.128906 -0.0820312 L 29.445312 1.96875 L 24.378906 17.160156 C 24.671875 17.027344 24.976562 16.898438 25.28125 16.785156 Z M 25.28125 16.785156 " fill-opacity="1" fill-rule="nonzero"/><g clip-path="url(#9badcedecd)"><path fill="#54c5ed" d="M 35.011719 43.109375 L 30.140625 57.707031 L 30.132812 57.6875 L 30.140625 57.703125 L 30.140625 43.980469 C 27.984375 43.980469 25.941406 43.492188 24.117188 42.621094 L 29.449219 57.953125 L 30.160156 59.996094 L 30.847656 57.941406 L 35.917969 42.734375 C 35.625 42.867188 35.324219 42.996094 35.015625 43.109375 Z M 35.011719 43.109375 " fill-opacity="1" fill-rule="nonzero"/></g><g clip-path="url(#91fb869947)"><path fill="#54c5ed" d="M 16.976562 34.820312 L 2.398438 29.953125 L 16.105469 29.953125 C 16.105469 27.796875 16.589844 25.761719 17.460938 23.9375 L 2.15625 29.261719 L 0.113281 29.972656 L 2.164062 30.660156 L 17.355469 35.726562 C 17.222656 35.429688 17.09375 35.128906 16.976562 34.820312 Z M 16.976562 34.820312 " fill-opacity="1" fill-rule="nonzero"/></g><path fill="#54c5ed" d="M 58.144531 29.253906 L 42.921875 24.171875 C 43.054688 24.46875 43.183594 24.769531 43.296875 25.074219 L 57.910156 29.953125 L 44.175781 29.953125 C 44.175781 32.109375 43.683594 34.15625 42.8125 35.988281 L 58.15625 30.652344 L 60.199219 29.9375 L 58.148438 29.253906 Z M 58.144531 29.253906 " fill-opacity="1" fill-rule="nonzero"/></svg>