<svg xmlns="http://www.w3.org/2000/svg" xmlns:xlink="http://www.w3.org/1999/xlink" width="80" zoomAndPan="magnify" viewBox="0 0 60 60" height="80" preserveAspectRatio="xMidYMid meet" version="1.0"><defs><clipPath id="fa5b5f4b62"><path d="M 24 42 L 36 42 L 36 59.917969 L 24 59.917969 Z M 24 42 " clip-rule="nonzero"/></clipPath><clipPath id="201f25e013"><path d="M 0.113281 23 L 18 23 L 18 36 L 0.113281 36 Z M 0.113281 23 " clip-rule="nonzero"/></clipPath></defs><path fill="#e83917" d="M 22.648438 18.046875 L 14.15625 13.9375 L 18.335938 22.304688 C 19.449219 20.59375 20.921875 19.136719 22.648438 18.046875 Z M 22.648438 18.046875 " fill-opacity="1" fill-rule="nonzero"/><path fill="#e83917" d="M 37.683594 18.132812 C 39.402344 19.246094 40.863281 20.722656 41.957031 22.453125 L 46.078125 13.9375 Z M 37.683594 18.132812 " fill-opacity="1" fill-rule="nonzero"/><path fill="#e83917" d="M 18.257812 37.390625 L 14.15625 45.867188 L 22.523438 41.6875 C 20.808594 40.585938 19.351562 39.117188 18.257812 37.390625 Z M 18.257812 37.390625 " fill-opacity="1" fill-rule="nonzero"/><path fill="#e83917" d="M 41.882812 37.476562 C 40.777344 39.195312 39.304688 40.65625 37.578125 41.75 L 46.078125 45.863281 L 41.886719 37.472656 Z M 41.882812 37.476562 " fill-opacity="1" fill-rule="nonzero"/><path fill="#54c5ed" d="M 30.097656 17.367188 C 23.171875 17.367188 17.554688 22.984375 17.554688 29.910156 C 17.554688 36.835938 23.171875 42.453125 30.097656 42.453125 C 37.023438 42.453125 42.640625 36.835938 42.640625 29.910156 C 42.640625 22.984375 37.023438 17.367188 30.097656 17.367188 Z M 30.097656 38.566406 L 21.839844 24.269531 L 27.367188 24.269531 L 30.105469 29.003906 L 32.839844 24.269531 L 38.351562 24.269531 Z M 30.097656 38.566406 " fill-opacity="1" fill-rule="nonzero"/><path fill="#54c5ed" d="M 25.246094 16.761719 L 30.105469 2.199219 L 30.105469 15.894531 C 32.253906 15.894531 34.292969 16.382812 36.121094 17.257812 L 30.800781 1.957031 L 30.089844 -0.0820312 L 29.402344 1.96875 L 24.34375 17.136719 C 24.640625 17.003906 24.941406 16.875 25.246094 16.761719 Z M 25.246094 16.761719 " fill-opacity="1" fill-rule="nonzero"/><g clip-path="url(#fa5b5f4b62)"><path fill="#54c5ed" d="M 34.964844 43.050781 L 30.101562 57.628906 L 30.09375 57.609375 L 30.101562 57.625 L 30.101562 43.921875 C 27.945312 43.921875 25.90625 43.429688 24.082031 42.5625 L 29.410156 57.871094 L 30.117188 59.914062 L 30.804688 57.863281 L 35.871094 42.675781 C 35.578125 42.808594 35.273438 42.9375 34.96875 43.050781 Z M 34.964844 43.050781 " fill-opacity="1" fill-rule="nonzero"/></g><g clip-path="url(#201f25e013)"><path fill="#54c5ed" d="M 16.953125 34.773438 L 2.394531 29.914062 L 16.082031 29.914062 C 16.082031 27.757812 16.566406 25.726562 17.4375 23.902344 L 2.15625 29.222656 L 0.113281 29.929688 L 2.164062 30.617188 L 17.328125 35.675781 C 17.199219 35.382812 17.070312 35.078125 16.953125 34.773438 Z M 16.953125 34.773438 " fill-opacity="1" fill-rule="nonzero"/></g><path fill="#54c5ed" d="M 58.0625 29.214844 L 42.863281 24.140625 C 42.996094 24.433594 43.125 24.734375 43.238281 25.042969 L 57.832031 29.914062 L 44.117188 29.914062 C 44.117188 32.066406 43.625 34.109375 42.753906 35.9375 L 58.078125 30.609375 L 60.117188 29.898438 L 58.066406 29.214844 Z M 58.0625 29.214844 " fill-opacity="1" fill-rule="nonzero"/></svg>